<?xml version="1.0" encoding="UTF-8" standalone="no"?>
<!-- Created with Inkscape (http://www.inkscape.org/) -->

<svg
   xmlns:dc="http://purl.org/dc/elements/1.1/"
   xmlns:cc="http://creativecommons.org/ns#"
   xmlns:rdf="http://www.w3.org/1999/02/22-rdf-syntax-ns#"
   xmlns:svg="http://www.w3.org/2000/svg"
   xmlns="http://www.w3.org/2000/svg"
   xmlns:sodipodi="http://sodipodi.sourceforge.net/DTD/sodipodi-0.dtd"
   xmlns:inkscape="http://www.inkscape.org/namespaces/inkscape"
   version="1.1"
   width="504.85095"
   height="505.53952"
   id="svg2"
   inkscape:version="0.48.4 r9939"
   sodipodi:docname="f_affiche_image_from_extension.svg">
  <sodipodi:namedview
     pagecolor="#ffffff"
     bordercolor="#666666"
     borderopacity="1"
     objecttolerance="10"
     gridtolerance="10"
     guidetolerance="10"
     inkscape:pageopacity="0"
     inkscape:pageshadow="2"
     inkscape:window-width="1600"
     inkscape:window-height="824"
     id="namedview9"
     showgrid="false"
     inkscape:zoom="0.33483335"
     inkscape:cx="1316.8589"
     inkscape:cy="325.52076"
     inkscape:window-x="0"
     inkscape:window-y="24"
     inkscape:window-maximized="1"
     inkscape:current-layer="layer1"
     fit-margin-top="0"
     fit-margin-left="0"
     fit-margin-right="0"
     fit-margin-bottom="0" />
  <defs
     id="defs4" />
  <metadata
     id="metadata7">
    <rdf:RDF>
      <cc:Work
         rdf:about="">
        <dc:format>image/svg+xml</dc:format>
        <dc:type
           rdf:resource="http://purl.org/dc/dcmitype/StillImage" />
        <dc:title />
      </cc:Work>
    </rdf:RDF>
  </metadata>
  <g
     transform="translate(692.4311,-128.76322)"
     id="layer1">
    <path
       style="fill:#0b0c0e"
       d="m -540.57881,632.59049 c -1.71481,-2.77463 2.30814,-6.63903 26.39698,-25.35686 10.71084,-8.32268 20.9813,-18.04644 22.82325,-21.60836 1.84193,-3.56194 3.84847,-13.31011 4.45891,-21.66256 1.74039,-23.81313 1.47088,-23.67861 47.45249,-23.67861 46.0995,0 45.85431,-0.12363 47.57132,23.99822 0.60944,8.56223 2.81353,18.34075 4.98187,22.10243 2.13887,3.71054 13.9586,14.46304 26.26613,23.89445 12.30748,9.43139 22.37725,18.5391 22.37725,20.23931 0,2.5677 -17.02118,3.19043 -100.48741,3.67657 -63.41633,0.36933 -100.98669,-0.22265 -101.84079,-1.60459 z M -670.75433,522.23014 c -3.53422,-1.05909 -8.48073,-3.75502 -10.99224,-5.99092 -10.81263,-9.62612 -10.69258,-7.47787 -10.68363,-191.20672 0.009,-168.32971 0.12078,-172.85277 4.47706,-179.9978 2.45778,-4.03107 7.76681,-9.34008 11.79785,-11.79786 7.18614,-4.38143 11.78489,-4.46877 235.5837,-4.47358 212.87435,-0.004 228.77407,0.26003 235.9655,3.927 4.24102,2.16259 9.80683,6.78906 12.36846,10.2811 4.61771,6.29491 4.65748,7.86332 4.65748,183.67553 0,175.81219 -0.0398,177.38061 -4.65748,183.67553 -2.56163,3.49202 -8.12744,8.11851 -12.36846,10.28108 -7.19729,3.66997 -22.7678,3.91927 -233.7167,3.74211 -124.30311,-0.10428 -228.8973,-1.05634 -232.43154,-2.11547 z m 437.3963,-82.61586 c 15.96919,-9.93058 15.60733,-6.54135 14.91442,-139.68939 -0.60599,-116.44504 -0.72471,-119.26747 -5.2774,-125.47199 -2.56162,-3.49103 -8.12744,-8.11669 -12.36847,-10.27926 -7.16622,-3.65413 -21.5331,-3.93191 -203.3577,-3.93191 -181.82461,0 -196.19148,0.27778 -203.35769,3.93191 -4.24106,2.16257 -9.80686,6.78823 -12.36846,10.27922 -4.55139,6.20268 -4.67196,9.04637 -5.29183,124.8091 -0.57186,106.79742 -0.26364,119.28733 3.13025,126.84541 3.88901,8.66065 10.83101,14.50102 20.92224,17.60204 3.19903,0.98308 93.35143,1.61025 200.33871,1.39374 l 194.5223,-0.3936 8.19363,-5.09527 z"
       id="path3137"
       inkscape:connector-curvature="0" />
  </g>
</svg>
