<?xml version="1.0" encoding="UTF-8" standalone="no"?>
<!-- Created with Inkscape (http://www.inkscape.org/) -->

<svg
   xmlns:dc="http://purl.org/dc/elements/1.1/"
   xmlns:cc="http://creativecommons.org/ns#"
   xmlns:rdf="http://www.w3.org/1999/02/22-rdf-syntax-ns#"
   xmlns:svg="http://www.w3.org/2000/svg"
   xmlns="http://www.w3.org/2000/svg"
   xmlns:sodipodi="http://sodipodi.sourceforge.net/DTD/sodipodi-0.dtd"
   xmlns:inkscape="http://www.inkscape.org/namespaces/inkscape"
   width="551.99359"
   height="594.95227"
   id="svg2"
   version="1.1"
   inkscape:version="0.48.4 r9939"
   sodipodi:docname="f_affiche_image_from_extension.svg">
  <defs
     id="defs4">
    <clipPath
       clipPathUnits="userSpaceOnUse"
       id="clipPath3025">
      <rect
         ry="28.571428"
         rx="28.571428"
         y="252.45224"
         x="38.214283"
         height="281.50479"
         width="360.75015"
         id="rect3027"
         style="fill:none;stroke:#000000" />
    </clipPath>
  </defs>
  <sodipodi:namedview
     id="base"
     pagecolor="#ffffff"
     bordercolor="#666666"
     borderopacity="1.0"
     inkscape:pageopacity="0.0"
     inkscape:pageshadow="2"
     inkscape:zoom="1.4"
     inkscape:cx="356.69143"
     inkscape:cy="264.31382"
     inkscape:document-units="px"
     inkscape:current-layer="g2996"
     showgrid="false"
     fit-margin-top="0"
     fit-margin-left="0"
     fit-margin-right="0"
     fit-margin-bottom="0"
     inkscape:window-width="1600"
     inkscape:window-height="824"
     inkscape:window-x="0"
     inkscape:window-y="24"
     inkscape:window-maximized="1" />
  <metadata
     id="metadata7">
    <rdf:RDF>
      <cc:Work
         rdf:about="">
        <dc:format>image/svg+xml</dc:format>
        <dc:type
           rdf:resource="http://purl.org/dc/dcmitype/StillImage" />
        <dc:title />
      </cc:Work>
    </rdf:RDF>
  </metadata>
  <g
     inkscape:label="Calque 1"
     inkscape:groupmode="layer"
     id="layer1"
     transform="translate(261.71108,-46.338495)">
    <g
       id="g2996"
       transform="translate(-97.14286,11.428571)">
      <path
         style="fill:#999999"
         d="m 313.36353,629.61218 c -0.0358,-0.1375 -0.59828,-3.85 -1.25,-8.25 l -1.18496,-8 -202.5,0 -202.5,0 -0.5,6.70216 c -0.275,3.68619 -0.987935,7.18913 -1.584301,7.7843 -0.686545,0.68518 -5.271939,0.97785 -12.499999,0.79784 l -11.4157,-0.2843 -0.67995,-6.87995 c -0.37397,-3.78397 -1.04897,-7.23016 -1.5,-7.6582 -0.45103,-0.42805 -6.22005,-0.93207 -12.82005,-1.12006 -10.99966,-0.3133 -12.39456,-0.57372 -16.7331,-3.12404 -5.80546,-3.41262 -9.7359,-8.18495 -11.44363,-13.89485 -1.03351,-3.45557 -1.29595,-36.3937 -1.30809,-164.16899 -0.017,-179.05488 -0.5112,-166.9226 7.10982,-174.54362 2.3302,-2.3302 6.31934,-4.88114 9.48569,-6.06582 5.33986,-1.9979 7.32167,-2.04447 86.99825,-2.04447 74.454,0 81.39614,-0.13778 79.94725,-1.58667 -1.44889,-1.44889 -1.34655,-2.03328 1.17857,-6.72998 6.31618,-11.74803 22.99518,-25.81835 38.88056,-32.79946 4.06157,-1.78493 7.38468,-3.6374 7.38468,-4.1166 0,-0.4792 -29.10883,-20.18505 -64.68629,-43.79078 l -64.6863,-42.9195 -7.129518,0.60266 c -6.9576,0.58813 -7.216886,0.52596 -10.75265,-2.57849 -10.491345,-9.21152 -4.760559,-25.081177 9.057215,-25.081177 7.225913,0 14.151233,7.059884 14.223623,14.499997 0.0278,2.85381 3.37808,5.224 68.75156,48.63845 37.7973,25.10115 69.17236,45.85833 69.72236,46.12707 0.55,0.26873 5.05,-0.38227 10,-1.44667 5.64527,-1.21392 15.06009,-2.15226 25.25788,-2.51738 l 16.25787,-0.58209 66.24213,-69.96592 66.24212,-69.965918 0.57856,-6.375591 c 0.64163,-7.070562 2.38982,-9.828086 7.63932,-12.049964 9.8127,-4.153272 20.26861,2.002015 20.27838,11.937676 0.008,8.471911 -5.91935,14.054711 -15.01823,14.144443 l -5.66805,0.0559 -62.40499,65.907884 c -34.32274,36.24933 -62.40499,66.39933 -62.40499,67 0,0.60066 1.125,1.21808 2.5,1.37204 11.32847,1.26845 32.10188,7.69732 43.5,13.4622 13.44706,6.80119 25.63061,17.25089 32.49381,27.86958 4.46881,6.91412 4.79446,8.32979 2.25619,9.80819 -1.20117,0.69962 19.95616,1.02882 67.46249,1.04969 67.22647,0.0295 69.36928,0.0891 74.67682,2.07488 3.16635,1.18468 7.15549,3.73562 9.48569,6.06582 7.62102,7.62102 7.12682,-4.51126 7.10982,174.54362 -0.0121,127.77529 -0.27458,160.71342 -1.30809,164.16899 -1.70773,5.7099 -5.63817,10.48223 -11.44363,13.89485 -4.51157,2.65203 -5.43517,2.79847 -19.7331,3.12871 -9.89079,0.22846 -15.25024,0.73938 -15.73469,1.5 -0.40408,0.63445 -0.74158,3.26175 -0.75,5.83844 -0.008,2.5767 -0.45417,5.8392 -0.99056,7.25 -0.969,2.54867 -1.04907,2.5651 -12.5,2.5651 -6.33861,0 -11.55402,-0.1125 -11.58979,-0.25 z M 66.17782,331.31646 c 82.08709,-5.74985 149.47459,-10.45428 149.75,-10.45428 1.09112,0 0.41701,-7.25962 -0.90997,-9.79966 -3.42239,-6.55097 -10.39645,-10.78653 -19.1528,-11.63208 -3.26506,-0.31529 -69.42956,-0.23463 -147.03221,0.17924 l -141.095721,0.7525 -7.18709,4.77979 c -8.682409,5.77425 -11.112619,9.34933 -11.117719,16.3552 -0.003,4.50562 0.33331,5.35316 2.74626,6.91503 1.5125,0.97902 5.48004,4.61934 8.816762,8.0896 l 6.066763,6.30955 4.933237,-0.5203 c 2.713281,-0.28617 72.095398,-5.22474 154.182488,-10.97459 z"
         id="path3000"
         inkscape:connector-curvature="0" />
      <path
         style="fill:#000000"
         d="m 313.59778,622.61218 c -0.12739,-3.9875 -0.47325,-8.03858 -0.76857,-9.00241 -0.50969,-1.66346 -10.87391,-1.73959 -204.20184,-1.5 l -203.664891,0.25241 -0.692485,4 c -0.380867,2.2 -0.810084,5.9125 -0.953816,8.25 l -0.261331,4.25 -10.682297,0 -10.6823,0 -0.61983,-3.75 c -0.34091,-2.0625 -0.63168,-5.325 -0.64616,-7.25 -0.0145,-1.925 -0.35693,-4.0066 -0.761,-4.62578 -0.44954,-0.68884 -5.39224,-1.28996 -12.73469,-1.54878 -10.95307,-0.38609 -12.47984,-0.68047 -17.5,-3.37422 -6.03258,-3.23699 -11.20337,-9.77906 -12.99849,-16.44563 -0.68594,-2.54737 -0.93887,-56.59094 -0.7636,-163.15733 l 0.26209,-159.34826 2.21138,-4.13445 c 2.91934,-5.4581 7.80687,-10.2415 12.76643,-12.49447 3.86189,-1.75434 14.24461,-1.82716 260.52219,-1.82716 246.27758,0 256.6603,0.0728 260.52219,1.82716 4.95956,2.25297 9.84709,7.03637 12.76643,12.49447 l 2.21138,4.13445 0.26209,159.34826 c 0.17527,106.56639 -0.0777,160.60996 -0.7636,163.15733 -1.7918,6.65425 -6.96691,13.20772 -12.99849,16.46059 -5.21484,2.81239 -6.27696,2.99385 -20.48572,3.5 l -14.98572,0.53382 -0.70665,4 c -0.38866,2.2 -0.73258,6.1375 -0.76428,8.75 l -0.0576,4.75 -11.29958,0 -11.29958,0 -0.23163,-7.25 z m 0.23817,-24.26299 c -0.35579,-1.41761 -0.10863,-3.14205 0.56704,-3.95619 1.38096,-1.66395 0.57018,-3.53082 -1.53344,-3.53082 -1.03295,0 -1.44098,1.22703 -1.44098,4.33333 0,4.28776 0.53187,5.66667 2.18572,5.66667 0.46881,0 0.56856,-1.13084 0.22166,-2.51299 z m 11.13475,1.44482 c 0.3631,-0.5875 1.34669,-0.80474 2.18577,-0.48275 0.83908,0.32198 2.1035,0.10581 2.80982,-0.48039 0.91096,-0.75602 1.47989,-0.74921 1.95741,0.0234 0.37025,0.59908 1.49744,0.82763 2.50487,0.50788 1.00743,-0.31975 2.12111,-0.11305 2.47486,0.45932 0.35375,0.57241 1.94006,1.04071 3.52514,1.04071 1.58508,0 3.17139,-0.4683 3.52514,-1.04068 0.35375,-0.57237 1.5053,-0.76705 2.55902,-0.43261 1.55763,0.49437 1.91584,0.11432 1.91584,-2.03265 0,-1.97536 0.44093,-2.55667 1.75,-2.30717 0.9625,0.18345 1.8938,1.34144 2.06955,2.57333 0.40163,2.81511 2.18045,2.95709 2.18045,0.17404 0,-5.29082 -3.64807,-7.46772 -7.17126,-4.27927 -1.70166,1.53998 -1.95582,1.53998 -3.65748,0 -2.42454,-2.19418 -4.46901,-2.08845 -6.67126,0.34501 -2.11191,2.33364 -3.5,2.576 -3.5,0.61111 0,-0.76389 -0.78728,-1.32639 -1.74952,-1.25 -1.11093,0.0882 -1.86704,-0.68778 -2.07149,-2.12594 -0.37996,-2.67265 -2.17899,-1.99246 -2.17899,0.82385 0,2.02412 -2.42727,2.6767 -3.5,0.94098 -2.2614,-3.65902 -8.59326,2.08871 -6.53589,5.93294 1.19492,2.23272 6.39209,2.91777 7.57802,0.99889 z m -5.2063,-2.49905 c -0.7217,-1.88073 1.04795,-3.93166 2.57704,-2.98663 1.6483,1.01871 1.30343,4.55385 -0.44425,4.55385 -0.84227,0 -1.80202,-0.70525 -2.13279,-1.56722 z m 19,0 c -0.83346,-2.17196 1.28244,-4.21451 2.79695,-2.7 1.28004,1.28004 0.48705,4.26722 -1.13278,4.26722 -0.58452,0 -1.3334,-0.70525 -1.66417,-1.56722 z m 16.08238,-23.03977 c 0.86999,-0.33384 1.58179,-0.97283 1.58179,-1.41998 0,-0.44714 -17.775,-0.86409 -39.5,-0.92656 -36.02734,-0.1036 -43.13057,0.3219 -38.25,2.29125 1.80229,0.72724 74.28003,0.77985 76.16821,0.0553 z m -140.35094,-6.50086 c 3.44065,-0.73788 6.42862,-2.24881 8.9475,-4.52446 5.85022,-5.28532 6.67918,-10.62207 8.05669,-51.86769 0.6429,-19.25 1.33983,-35.1875 1.54873,-35.41667 0.20889,-0.22916 0.4357,9.89584 0.50402,22.5 0.0683,12.60417 0.44751,26.06667 0.84266,29.91667 0.39514,3.85 0.77937,-44.3 0.85383,-107 0.13383,-112.69801 0.11211,-114.05139 -1.90161,-118.5 -2.51148,-5.54822 -6.18268,-9.51599 -11.41909,-12.34158 l -4,-2.15842 -162,-0.0605 -162,-0.0605 -5.22959,2.37403 c -2.87627,1.30572 -6.57622,4.00773 -8.2221,6.00447 -6.36399,7.72069 -6.04831,0.88048 -6.04831,131.05462 0,90.19754 0.29061,119.43774 1.21822,122.57186 1.40624,4.75127 8.56322,12.29098 14.43365,15.20551 3.56628,1.77058 7.18066,1.94893 49.34813,2.43509 95.00235,1.09529 269.73485,1.01117 275.06727,-0.13243 z M -117.57143,306.31252 c 0,-4.55335 6.02357,-11.21145 13,-14.36943 4.30602,-1.94918 6.224295,-2.03055 44.5,-1.88769 l 40,0.1493 -35.5,0.89791 -35.5,0.8979 -7.011535,3.2683 c -3.856345,1.79756 -9.587485,5.36644 -12.735875,7.93083 -6.3295,5.15546 -6.75259,5.3505 -6.75259,3.11288 z m 477.5843,260.29966 c 0.41197,-0.4125 0.41197,-1.0875 0,-1.5 -0.41198,-0.4125 -20.06198,-0.89645 -43.66667,-1.07544 l -42.91763,-0.32544 0,2.11591 0,2.11591 42.91763,-0.29047 c 23.6047,-0.15976 43.2547,-0.62797 43.66667,-1.04047 z m -39.26098,-6.73635 c 37.38454,-0.0128 39.80269,-0.12082 39.48631,-1.76365 -0.3148,-1.63461 -3.19888,-1.75 -43.73999,-1.75 -33.8565,0 -43.49471,0.27521 -43.82005,1.25124 -0.51761,1.55283 3.55292,3.32631 6.25041,2.72322 1.1,-0.24593 19.9205,-0.4533 41.82332,-0.46081 z m 10.83479,-8.01365 c 28.17522,0 28.84189,-0.0462 28.84189,-2 0,-1.9617 -0.74209,-2.00433 -38.75,-2.22626 -49.74239,-0.29044 -47.07526,-0.35132 -48.5137,1.10728 -0.98373,0.99752 -0.82772,1.56746 0.7637,2.78984 1.66745,1.28078 4.22943,1.43586 15.40811,0.93268 7.37446,-0.33195 26.38696,-0.60354 42.25,-0.60354 z m 29.05025,-8.88253 c 2.7018,-2.41891 -2.73473,-2.85055 -42.85915,-3.40285 -35.69571,-0.49134 -42.43398,-0.36077 -44,0.85259 -1.79163,1.38818 -1.78694,1.4809 0.15079,2.97788 1.76326,1.3622 6.97146,1.46587 44,0.87583 23.1,-0.36809 42.31876,-0.95464 42.70836,-1.30345 z m -26.70836,-6.9384 c 23.03153,-0.57926 27,-0.89954 27,-2.17907 0,-1.28203 -3.99608,-1.58954 -27.5,-2.11619 -46.82796,-1.04926 -46.1554,-1.01752 -41,-1.93485 2.475,-0.44039 12.825,-0.88723 23,-0.99297 31.74491,-0.3299 45.5,-1.22353 45.5,-2.95599 0,-1.25896 -3.05317,-1.59957 -19,-2.11963 -10.45,-0.3408 -23.4625,-0.6783 -28.91667,-0.75 -19.14665,-0.25171 -8.28108,-1.49206 18.98708,-2.16745 26.81569,-0.66418 31.5423,-1.30007 28.87959,-3.88526 -0.5225,-0.50729 -10.85,-1.27615 -22.95,-1.70857 -25.45299,-0.90962 -22.60451,-2.14012 5.28138,-2.28148 14.7147,-0.0746 17.37071,-0.32038 17.88279,-1.65483 1.14873,-2.99355 -1.569,-3.75253 -15.87442,-4.43326 -15.31362,-0.7287 -14.91445,-0.93151 3.71025,-1.88511 11.96949,-0.61285 12,-0.62077 12,-3.11441 0,-2.4 -0.3,-2.52 -7.5,-3 l -7.5,-0.5 7.30677,-0.81615 c 7.55557,-0.84393 9.15286,-1.97977 7.64146,-5.43385 -0.42116,-0.9625 -0.62502,-2.2 -0.45302,-2.75 0.17201,-0.55 0.4355,-3.60426 0.58555,-6.78725 0.22679,-4.81087 -0.0523,-5.99026 -1.65397,-6.99055 -1.05974,-0.66181 -1.92679,-1.97921 -1.92679,-2.92756 0,-0.94835 -0.87042,-2.19011 -1.93426,-2.75946 -2.37802,-1.27268 -74.92718,-1.40916 -76.92275,-0.14471 -0.77167,0.48895 -1.10218,1.66855 -0.76622,2.73468 0.43459,1.37915 -0.2324,2.34493 -2.5227,3.65278 -3.01938,1.72419 -3.05954,1.83754 -1.32879,3.75 1.71337,1.89326 1.71236,2.052 -0.0253,3.97207 -1.74663,1.93001 -1.74663,2.06999 0,4 1.74663,1.93001 1.74663,2.06999 0,4 -1.74663,1.93001 -1.74663,2.06999 0,4 1.74663,1.93001 1.74663,2.06999 0,4 -1.68717,1.8643 -1.69768,2.12408 -0.15499,3.82874 2.09353,2.31333 2.07921,3.14058 -0.0817,4.7207 -1.64897,1.20575 -1.64897,1.36689 0,3.18898 2.18,2.40888 2.17777,3.21858 -0.0133,4.82075 -1.64324,1.20158 -1.6105,1.42814 0.53678,3.71384 l 2.28679,2.4342 -2.28679,1.61905 -2.28678,1.61905 2.46445,2.11129 2.46444,2.11128 -2.35826,1.77885 c -2.52366,1.90359 -2.15477,3.71667 0.99312,4.88115 1.86035,0.68819 7.97662,0.62028 58.43625,-0.64881 z M 316.37552,452.4261 c 0.8659,-1.04334 0.90036,-1.9807 0.12603,-3.42756 -0.58619,-1.09531 -0.79428,-2.69907 -0.46241,-3.56392 0.43106,-1.12331 0.002,-1.57244 -1.50358,-1.57244 -2.43686,0 -2.84013,2.84417 -0.85699,6.04408 1.0303,1.66245 0.98636,2.18465 -0.25,2.97112 -1.30388,0.82942 -1.2872,0.95618 0.12756,0.96949 0.89515,0.008 2.16388,-0.63092 2.81939,-1.42077 z m 8.27879,-16.33958 c 6.07636,-2.68786 10.88791,-7.17898 13.80072,-12.88166 2.02852,-3.97143 2.47043,-6.28197 2.45623,-12.84268 -0.0198,-9.14669 -1.94552,-13.89616 -8.15007,-20.10072 -14.15563,-14.15562 -39.61218,-8.12726 -45.92379,10.87519 -2.0045,6.03501 -1.53005,16.65664 0.95903,21.47001 3.8443,7.43405 11.08549,13.25307 19.13214,15.37457 4.47756,1.18051 12.7799,0.29307 17.72574,-1.89471 z m -20.75735,-5.42786 c -3.34607,-2.63203 -3.24743,-3.16018 4.14616,-22.19908 4.62433,-11.90789 6.2047,-14.95838 8.12841,-15.68977 2.85648,-1.08603 5.85519,0.2509 6.72752,2.99938 0.63579,2.00318 -6.12707,23.32955 -9.83599,31.01733 -2.66842,5.53106 -5.5237,6.73725 -9.1661,3.87214 z m -19.07557,4.91153 c 0.8994,-1.45571 0.67579,-2.12023 -1.1916,-3.5411 -1.52478,-1.16018 -2.07798,-2.32449 -1.64301,-3.45801 0.78509,-2.0459 -0.84816,-2.26938 -2.45302,-0.33565 -1.38359,1.66712 -0.42292,4.62675 1.5018,4.62675 1.7316,0 1.81109,2.16618 0.14301,3.89706 -1.00998,1.04801 -0.88655,1.23043 0.64282,0.95 1.04105,-0.19088 2.39105,-1.15346 3,-2.13905 z m 64.23218,-0.83301 c -0.34375,-1.71875 -0.625,-3.74375 -0.625,-4.5 0,-2.54705 -2.84037,-1.40136 -4.43109,1.78733 -0.86767,1.73928 -1.46313,3.24792 -1.32325,3.35252 1.45678,1.08936 4.5323,2.43048 5.62934,2.45474 1.00951,0.0223 1.20887,-0.80025 0.75,-3.09459 z m -64.79464,-45.70747 c 0.30614,-2.16146 -2.20371,-6.16753 -3.86403,-6.16753 -1.22184,0 -3.23146,5.86669 -2.5859,7.54901 0.98538,2.56784 6.04403,1.48436 6.44993,-1.38148 z m -4.19088,1.13862 c -1.19516,-1.19516 -0.64571,-3.30615 0.86052,-3.30615 0.825,0 1.5,0.64844 1.5,1.44098 0,1.67065 -1.42728,2.79841 -2.36052,1.86517 z m 66.77299,1.08907 c 0.86682,-0.33264 1.33493,-0.99493 1.04023,-1.47176 -0.2947,-0.47683 0.22732,-2.03167 1.16005,-3.45519 1.52835,-2.33256 1.54347,-2.74062 0.15307,-4.13103 -0.95417,-0.95416 -2.32932,-1.29317 -3.60426,-0.88852 -1.77178,0.56234 -2.01064,1.31452 -1.69984,5.35278 0.46563,6.05008 0.20656,5.64676 2.95075,4.59372 z m -1.41247,-6.89522 c 0,-0.91667 0.48375,-1.50542 1.075,-1.30833 0.59125,0.19708 1.075,0.78583 1.075,1.30833 0,0.5225 -0.48375,1.11125 -1.075,1.30833 -0.59125,0.19709 -1.075,-0.39166 -1.075,-1.30833 z m -30,-11.5 c 0,-1.58508 -0.47994,-3.17858 -1.06653,-3.54112 -1.53623,-0.94944 -1.7056,-0.40785 -1.18308,3.7831 0.53366,4.28022 2.24961,4.09564 2.24961,-0.24198 z m 8.8382,-13.59677 c 5.4944,-2.26294 10.58462,-6.93252 13.71284,-12.57968 2.58262,-4.66222 2.94681,-6.31737 2.93165,-13.32355 -0.0185,-8.55991 -1.59044,-12.9093 -6.9808,-19.31538 -9.03176,-10.73364 -29.25494,-11.43463 -39.8411,-1.38101 -9.9781,9.47615 -11.556,26.13867 -3.52512,37.22498 7.40328,10.21993 21.87585,14.24559 33.70253,9.37464 z m -15.96576,-5.06892 c -1.06409,-1.29146 -1.32251,-5.45098 -1.15021,-18.51386 0.12223,-9.2665 0.68426,-17.71146 1.24894,-18.76659 1.64793,-3.07917 4.94305,-3.5838 7.39636,-1.13269 1.97325,1.97146 2.15762,3.36382 2.46924,18.64779 0.28323,13.89117 0.0808,16.90786 -1.27305,18.97414 -1.90669,2.90998 -6.59394,3.33668 -8.69128,0.79121 z m -28.53502,-39.95526 c 4.62222,-0.68471 6.66258,-2.56429 6.66258,-6.13757 0,-1.98811 -0.36753,-2.27123 -2.25,-1.73329 -1.2375,0.35363 -3.50292,2.07145 -5.03426,3.81738 -2.32204,2.64744 -2.94458,2.92541 -3.75,1.67443 -0.76638,-1.19035 -1.13707,-1.23497 -1.79569,-0.21613 -0.45674,0.70654 -1.58093,0.99569 -2.5,0.64301 -2.11488,-0.81155 -2.13048,-0.0302 -0.0411,2.0592 0.89592,0.89592 2.28525,1.37709 3.08742,1.06927 0.80216,-0.30782 3.33164,-0.83715 5.62106,-1.1763 z m 67.29595,-1.3654 c 0.62335,-0.008 1.36872,-0.91365 1.65638,-2.01365 0.68013,-2.60083 2.748,-2.57166 3.43316,0.0484 0.79383,3.0356 3.55938,1.94968 4.6412,-1.82239 1.12457,-3.92117 0.16519,-5.31598 -1.82481,-2.65303 -1.37458,1.83941 -1.57787,1.85002 -4.47246,0.23339 -2.93219,-1.63764 -3.08257,-1.62202 -4.54963,0.4725 -0.83447,1.19137 -1.51721,2.74099 -1.51721,3.44362 0,1.61211 -2.22011,1.65738 -3.8,0.0775 -0.66667,-0.66667 -1.2,-0.75556 -1.2,-0.2 0,1.86384 2.49015,3.50428 4.5,2.96447 1.1,-0.29544 2.51002,-0.54331 3.13337,-0.55082 z m -36.78701,-16.58689 c 1.7345,-0.86528 3.15364,-1.99028 3.15364,-2.5 0,-1.77853 2.19143,-0.91074 2.71025,1.07324 0.90711,3.46878 4.11491,2.44888 4.86448,-1.54663 0.80165,-4.27317 -0.0714,-5.50859 -2.03543,-2.88037 -1.37754,1.84338 -1.57261,1.85294 -4.49506,0.22041 -3.00043,-1.67608 -3.08409,-1.66222 -4.6814,0.77557 -1.17636,1.79536 -2.17795,2.30709 -3.61983,1.84945 -1.09641,-0.34798 -1.7815,-0.24699 -1.52243,0.22444 0.25907,0.47142 0.7513,1.64463 1.09384,2.60713 0.75589,2.12394 0.63795,2.11934 4.53194,0.17676 z M 19.91009,245.83228 c -1.02308,-1.65538 4.3777,-9.95579 10.9441,-16.81985 7.19369,-7.51981 19.15696,-15.66952 29.57438,-20.1469 8.94609,-3.84501 9.54577,-4.31988 7.72548,-6.11764 -0.77169,-0.76214 -30.69199,-20.89842 -66.48954,-44.74728 l -65.08646,-43.36156 -4.973727,1.27473 c -4.047209,1.03727 -5.555165,1.03389 -8.094989,-0.0181 -5.073421,-2.10148 -8.080764,-6.46612 -8.080764,-11.72783 0,-3.94147 0.512509,-5.05343 3.882353,-8.423274 3.267642,-3.267642 4.542182,-3.882353 8.04966,-3.882353 7.637649,0 13.045757,4.836449 13.083297,11.700337 0.008,1.53982 0.34592,3.29513 0.75,3.90069 0.40408,0.60557 31.99179,21.93278 70.19491,47.3938 l 69.46022,46.29277 9.03978,-1.6806 c 12.65743,-2.35317 24.57629,-3.59053 34.67112,-3.59941 l 8.63134,-0.008 59.43073,-62.75 c 82.26385,-86.858367 75.09452,-78.966675 74.36805,-81.861157 -0.98193,-3.912315 1.14001,-9.790556 4.68069,-12.966548 2.62331,-2.353108 4.17329,-2.922292 7.95785,-2.922292 4.17464,0 5.09378,0.429894 8.22267,3.845854 4.43247,4.83913 5.35728,9.208255 3.00042,14.174984 -2.55221,5.378379 -6.73879,7.694778 -12.92309,7.150233 -4.70249,-0.414066 -5.20826,-0.221615 -8.5,3.234325 -63.50821,66.676141 -123.5,130.765871 -123.5,131.936081 0,1.14382 2.75771,2.07401 11,3.71037 31.20906,6.19602 55.41595,20.05544 67.91288,38.88286 2.06903,3.11713 3.51168,6.31951 3.20588,7.1164 -0.48054,1.25227 -14.59754,1.44889 -104.02836,1.44889 -69.90572,0 -103.67885,-0.3341 -104.10888,-1.0299 z m 46.51848,-12.55983 c 17.21796,-1.72857 41.22688,-5.52618 55.91932,-8.84505 5.81937,-1.31454 15.75568,-2.66656 22.08068,-3.00448 12.82521,-0.68522 30.56894,-3.65105 30.3723,-5.07668 -0.24374,-1.76715 -11.92336,-7.44752 -21.3723,-10.39439 -12.95204,-4.0394 -21.28511,-5.24439 -36,-5.20573 -30.47198,0.0801 -57.32778,9.85378 -77.34505,28.14844 -3.11022,2.84257 -5.65495,5.62638 -5.65495,6.18624 0,1.09734 6.99335,0.70213 32,-1.80835 z m -138.542094,-132.925 c 3.276849,-1.22799 6.112855,-2.69755 6.302236,-3.265694 0.550515,-1.651543 -3.921347,-4.219573 -7.34779,-4.219573 -1.728449,0 -4.277751,0.892883 -5.665116,1.984184 -4.093671,3.220082 -4.827463,10.133913 -0.896085,8.442973 0.906867,-0.39006 4.329907,-1.71391 7.606755,-2.94189 z M 279.17857,44.986391 c 3.9875,-1.275456 7.25,-2.655436 7.25,-3.066622 0,-1.317563 -3.43398,-3.864823 -5.5,-4.079794 -4.56552,-0.475045 -6.72481,0.161741 -9.04775,2.668231 -2.56915,2.772155 -3.40965,7.77001 -1.20225,7.148911 0.6875,-0.193444 4.5125,-1.39527 8.5,-2.670726 z"
         id="path2998"
         inkscape:connector-curvature="0" />
    </g>
    <path
       style="fill:#00ffff;stroke:#00ffff;stroke-width:1px;stroke-linecap:butt;stroke-linejoin:miter;stroke-opacity:1"
       d="M 38.928571,533.5237 209.28571,362.09513 395.71429,533.88084 z"
       id="path3004"
       inkscape:connector-curvature="0"
       transform="translate(-261.71108,46.338495)"
       sodipodi:nodetypes="cccc"
       clip-path="url(#clipPath3025)" />
    <path
       sodipodi:type="arc"
       style="fill:#00ffff;stroke:#00ffff"
       id="path3002"
       sodipodi:cx="205"
       sodipodi:cy="362.09512"
       sodipodi:rx="72.85714"
       sodipodi:ry="72.85714"
       d="m 277.85714,362.09512 c 0,40.23789 -32.61925,72.85714 -72.85714,72.85714 -40.23789,0 -72.85714,-32.61925 -72.85714,-72.85714 0,-40.23788 32.61925,-72.85714 72.85714,-72.85714 40.23789,0 72.85714,32.61926 72.85714,72.85714 z"
       transform="translate(-250.99679,27.052781)" />
  </g>
</svg>
