<?xml version="1.0" encoding="UTF-8" standalone="no"?>
<!-- Created with Inkscape (http://www.inkscape.org/) -->

<svg
   xmlns:dc="http://purl.org/dc/elements/1.1/"
   xmlns:cc="http://creativecommons.org/ns#"
   xmlns:rdf="http://www.w3.org/1999/02/22-rdf-syntax-ns#"
   xmlns:svg="http://www.w3.org/2000/svg"
   xmlns="http://www.w3.org/2000/svg"
   xmlns:sodipodi="http://sodipodi.sourceforge.net/DTD/sodipodi-0.dtd"
   xmlns:inkscape="http://www.inkscape.org/namespaces/inkscape"
   version="1.1"
   width="588.30444"
   height="384.38867"
   id="svg2"
   inkscape:version="0.48.4 r9939"
   sodipodi:docname="f_display_image_activity.svg">
  <sodipodi:namedview
     pagecolor="#ffffff"
     bordercolor="#666666"
     borderopacity="1"
     objecttolerance="10"
     gridtolerance="10"
     guidetolerance="10"
     inkscape:pageopacity="0"
     inkscape:pageshadow="2"
     inkscape:window-width="1600"
     inkscape:window-height="824"
     id="namedview9"
     showgrid="false"
     inkscape:zoom="0.33483335"
     inkscape:cx="1356.7814"
     inkscape:cy="265.01594"
     inkscape:window-x="0"
     inkscape:window-y="24"
     inkscape:window-maximized="1"
     inkscape:current-layer="layer1"
     fit-margin-top="0"
     fit-margin-left="0"
     fit-margin-right="0"
     fit-margin-bottom="0" />
  <defs
     id="defs4" />
  <metadata
     id="metadata7">
    <rdf:RDF>
      <cc:Work
         rdf:about="">
        <dc:format>image/svg+xml</dc:format>
        <dc:type
           rdf:resource="http://purl.org/dc/dcmitype/StillImage" />
        <dc:title />
      </cc:Work>
    </rdf:RDF>
  </metadata>
  <g
     transform="translate(732.35365,-189.40926)"
     id="layer1">
    <path
       style="fill:#181818"
       d="m -695.88556,570.40329 c -5.0185,-1.59818 -14.01961,-7.80084 -20.00246,-13.78367 -16.94794,-16.94797 -17.0991,-18.65845 -16.15227,-182.80079 0.80484,-139.53058 0.99053,-144.11514 6.24294,-154.1276 6.88463,-13.12397 21.16701,-24.7243 34.14912,-27.73634 16.52811,-3.83479 496.24132,-3.13421 509.21983,0.74367 15.10817,4.51422 31.32783,21.42208 35.16371,36.65575 4.28729,17.02639 4.28729,287.59079 0,304.61718 -3.83588,15.23368 -20.05554,32.14157 -35.16371,36.65577 -14.61881,4.368 -499.70213,4.1564 -513.45716,-0.22407 z m 417.31871,-24.17623 c 3.97049,-2.96501 9.64503,-8.6381 12.61004,-12.60691 5.11099,-6.84121 5.39095,-10.63466 5.39095,-73.04985 l 0,-65.83393 -15.66446,-1.30733 -15.66447,-1.30736 -6.05787,-12.79159 c -6.54587,-13.82201 -8.62329,-13.53643 -13.54708,1.8622 -3.66899,11.47453 -3.92351,11.62001 -24.88755,14.22832 -15.40865,1.91714 -15.80224,2.17131 -22.46456,14.50699 -3.72962,6.90561 -8.73234,14.50687 -11.11716,16.8917 -4.00953,4.00951 -4.65726,4.01482 -8.60179,0.0703 -2.37916,-2.3792 -8.78236,-23.04328 -14.47833,-46.72391 -5.61695,-23.35198 -11.30958,-44.33433 -12.65029,-46.62742 -1.54052,-2.63488 -2.46689,30.04778 -2.51715,88.80631 -0.0625,73.1075 -0.82215,93.9912 -3.55487,97.72839 -7.46407,10.20774 -12.92901,1.28532 -38.41059,-62.71171 -25.50801,-64.06337 -25.54357,-64.12036 -42.22195,-67.66893 -4.19763,-0.89312 -9.22738,-5.12924 -12.63304,-10.63973 -3.11225,-5.03572 -6.50481,-9.15585 -7.53903,-9.15585 -1.03425,0 -4.45283,5.29476 -7.59686,11.76611 -5.62931,11.58682 -5.91335,11.76613 -18.63903,11.76613 -12.66383,0 -13.15145,0.30105 -24.34998,15.03449 -8.4392,11.10312 -13.10262,15.0345 -17.83401,15.0345 -6.1389,0 -6.82173,-1.80293 -16.33801,-43.13796 -5.46223,-23.72586 -10.94974,-44.15636 -12.19447,-45.40109 -3.22109,-3.22109 -4.73024,15.49504 -8.08787,100.30517 -2.05311,51.85939 -3.92864,75.54182 -6.16791,77.8832 -6.88621,7.20018 -11.69126,0.14644 -21.59217,-31.69704 -5.43898,-17.49293 -14.03403,-44.15979 -19.10011,-59.25963 l -9.21103,-27.4543 -15.68818,0 -15.68816,0 -0.76273,58.83062 c -0.41949,32.35683 -0.0784,62.61996 0.75772,67.2514 1.89149,10.47573 12.87317,23.82951 23.40762,28.46375 6.47514,2.84852 44.42503,3.39762 201.92448,2.92182 191.3493,-0.57808 194.0476,-0.65824 201.1699,-5.9769 z m 87.4352,-19.52614 c 7.66264,-4.10093 13.52946,-17.38173 11.58639,-26.22842 -3.21037,-14.61666 -21.93632,-22.66165 -35.65671,-15.31873 -2.90335,1.55384 -6.97842,6.89276 -9.05562,11.86428 -3.33942,7.99231 -3.29786,10.0484 0.35875,17.75415 6.11739,12.89145 20.90761,18.27577 32.76719,11.92872 z M -423.98424,353.97225 c 0,-97.53648 0.45886,-109.92097 4.12479,-111.32773 2.26864,-0.87057 5.71906,0.0489 7.66764,2.0431 1.94856,1.99425 11.34142,35.95589 20.87302,75.47033 9.53164,39.51445 17.95277,72.45958 18.71371,73.21144 0.76089,0.75183 4.14012,-2.08261 7.5094,-6.29874 5.41565,-6.77698 7.58828,-7.59902 18.73904,-7.09021 15.9763,0.729 19.52459,-2.23322 26.85931,-22.42287 10.41509,-28.66879 18.70088,-28.68557 30.34951,-0.0615 l 7.70668,18.93747 10.43762,0 10.43766,0 0,-69.75563 c 0,-66.37593 -0.26122,-70.10522 -5.39095,-76.9719 -2.96501,-3.96895 -8.6404,-9.64224 -12.61196,-12.60725 -7.14365,-5.33329 -9.33079,-5.39102 -204.24687,-5.39102 -194.91633,0 -197.10321,0.0577 -204.2461,5.39095 -3.9711,2.96501 -9.64614,8.63828 -12.61115,12.60724 -5.12977,6.86667 -5.39095,10.59597 -5.39095,76.97191 l 0,69.75561 20.14292,1.30736 c 11.07862,0.71904 21.38927,2.55808 22.9126,4.08678 1.52331,1.52868 7.31296,17.36367 12.86585,35.18884 9.87948,31.71367 15.95618,41.9486 16.00868,26.96327 0.0138,-4.07455 1.78847,-47.96871 3.9427,-97.54251 3.15497,-72.60338 4.67558,-90.89304 7.81814,-94.03562 7.67112,-7.67112 11.69362,2.81054 27.29113,71.11408 8.40278,36.7969 16.12488,68.27406 17.16018,69.9492 1.23982,2.00605 4.52309,-0.15798 9.61821,-6.33916 6.78217,-8.22797 9.18307,-9.38488 19.47558,-9.38488 l 11.73974,0 7.70613,-16.99552 c 6.39598,-14.10605 8.78084,-16.99551 14.02752,-16.99551 4.92409,0 8.42785,3.46761 15.85104,15.68745 8.4319,13.88045 10.69877,15.87444 19.6793,17.31048 5.58232,0.89266 11.86849,3.54036 13.96929,5.88377 2.10077,2.34341 10.38784,21.13445 18.41565,41.75783 8.02785,20.62344 15.26901,38.58596 16.09149,39.91674 5.27766,8.53943 6.36345,-10.28704 6.36345,-110.33386 z m 238.35088,87.4542 c 14.24189,-12.88875 2.42082,-40.15334 -17.40924,-40.15334 -8.1154,0 -19.07563,7.77812 -21.74324,15.43044 -8.65897,24.83912 19.4271,42.57411 39.15248,24.7229 z m -7.24593,-74.03202 c 15.23944,-5.79401 18.16518,-28.92274 4.97148,-39.30087 -12.89862,-10.14609 -30.85708,-5.27178 -37.22589,10.10388 -2.66359,6.4305 -2.48138,9.24705 1.08442,16.76139 6.24969,13.17025 17.46697,17.64547 31.16999,12.4356 z m 5.38186,-84.43621 c 21.05111,-18.52487 -1.68812,-50.50965 -26.71017,-37.57023 -14.33398,7.41236 -16.44502,28.37902 -3.85448,38.28272 8.84625,6.95847 22.20136,6.64714 30.56465,-0.71249 z"
       id="path3181"
       inkscape:connector-curvature="0" />
  </g>
</svg>
