<?xml version="1.0" encoding="UTF-8" standalone="no"?>
<!-- Created with Inkscape (http://www.inkscape.org/) -->

<svg
   xmlns:dc="http://purl.org/dc/elements/1.1/"
   xmlns:cc="http://creativecommons.org/ns#"
   xmlns:rdf="http://www.w3.org/1999/02/22-rdf-syntax-ns#"
   xmlns:svg="http://www.w3.org/2000/svg"
   xmlns="http://www.w3.org/2000/svg"
   xmlns:sodipodi="http://sodipodi.sourceforge.net/DTD/sodipodi-0.dtd"
   xmlns:inkscape="http://www.inkscape.org/namespaces/inkscape"
   version="1.1"
   width="829.36853"
   height="670.14355"
   id="svg2"
   inkscape:version="0.48.4 r9939"
   sodipodi:docname="f_grabimages.svg">
  <sodipodi:namedview
     pagecolor="#ffffff"
     bordercolor="#666666"
     borderopacity="1"
     objecttolerance="10"
     gridtolerance="10"
     guidetolerance="10"
     inkscape:pageopacity="0"
     inkscape:pageshadow="2"
     inkscape:window-width="1600"
     inkscape:window-height="824"
     id="namedview9"
     showgrid="false"
     inkscape:zoom="0.11838147"
     inkscape:cx="4390.1603"
     inkscape:cy="-1024.2143"
     inkscape:window-x="0"
     inkscape:window-y="24"
     inkscape:window-maximized="1"
     inkscape:current-layer="layer1"
     fit-margin-top="0"
     fit-margin-left="0"
     fit-margin-right="0"
     fit-margin-bottom="0" />
  <defs
     id="defs4" />
  <metadata
     id="metadata7">
    <rdf:RDF>
      <cc:Work
         rdf:about="">
        <dc:format>image/svg+xml</dc:format>
        <dc:type
           rdf:resource="http://purl.org/dc/dcmitype/StillImage" />
        <dc:title />
      </cc:Work>
    </rdf:RDF>
  </metadata>
  <g
     transform="translate(854.14255,-49.009662)"
     id="layer1">
    <path
       style="fill:#000000"
       d="m -725.74764,715.8507 c -58.35763,-9.83183 -111.81663,-61.85732 -124.15381,-120.82464 -6.31599,-30.1884 -5.29036,-367.02537 1.17269,-385.13614 7.02471,-19.68452 22.84639,-39.06514 41.03219,-50.26208 11.52977,-7.0988 16.79947,-13.37493 19.9497,-23.75976 5.81833,-19.18028 19.67554,-24.60269 62.87336,-24.60269 37.73345,0 51.96938,5.05422 59.681,21.18884 4.54538,9.50997 6.53106,10.22049 31.39105,11.23233 l 26.53876,1.08017 8.88615,-13.98529 c 4.88734,-7.6919 16.15787,-26.42952 25.04556,-41.639127 24.89053,-42.595446 17.56952,-40.883858 169.83457,-39.7052 151.07814,1.169536 137.24154,-3.261898 171.02371,54.773297 l 22.35022,38.39601 32.95748,2.38139 c 18.43997,1.33243 41.43427,5.6238 52.20155,9.74232 39.92584,15.27176 73.989354,49.14608 90.813552,90.30902 7.51636,18.38989 7.919494,26.03663 9.082546,172.26205 0.839964,105.61036 -0.107323,159.87199 -3.057961,175.14098 -12.055678,62.38794 -64.692628,113.31371 -127.804647,123.64995 -25.81892,4.22848 -544.59061,4.00871 -569.81767,-0.2415 z M -333.6564,611.9185 c 13.42412,-4.94668 32.50529,-13.68861 42.40256,-19.42653 25.48377,-14.77407 67.5411,-58.75252 81.14817,-84.8549 20.93802,-40.16533 25.25166,-58.39855 25.29741,-106.92818 0.0514,-54.29777 -8.85925,-85.59293 -35.86758,-125.97374 -22.58324,-33.76477 -48.42466,-56.59978 -84.70983,-74.85478 -88.99596,-44.77362 -191.06751,-28.75243 -260.17006,40.83646 -124.06825,124.9415 -65.4881,334.09446 105.78603,377.69543 31.92049,8.12594 95.29463,4.86272 126.1133,-6.49376 z m -103.03184,-62.13699 c -44.65278,-8.78732 -88.22366,-42.59223 -108.62198,-84.2754 -11.17839,-22.8427 -11.86133,-26.58344 -11.86133,-64.96923 0,-39.60208 0.38165,-41.50381 13.77055,-68.61307 16.584,-33.5785 37.92043,-54.4733 72.21586,-70.72111 23.00668,-10.89958 27.30047,-11.66812 65.18788,-11.66812 38.19209,0 41.97341,0.69219 64.79725,11.86135 60.33442,29.52561 95.93154,97.53722 84.72694,161.87883 -11.24613,64.58021 -60.28307,114.72694 -123.64115,126.43936 -24.5224,4.53319 -33.82467,4.5443 -56.57402,0.0673 z M -700.85698,247.62019 c 26.14038,-16.15564 28.86499,-55.21974 5.23804,-75.10049 -32.11868,-27.02606 -77.20076,-5.37492 -77.23877,37.09478 -0.0331,35.67324 40.85445,57.25518 72.00073,38.00571 z"
       id="path3088"
       inkscape:connector-curvature="0" />
  </g>
</svg>
